<svg width="666" height="263" viewBox="0 0 666 263" fill="none" xmlns="http://www.w3.org/2000/svg">
<mask id="mask0_2_7596" style="mask-type:luminance" maskUnits="userSpaceOnUse" x="3" y="3" width="660" height="159">
<path d="M662.451 3.2019H3.98685V161.002H662.451V3.2019Z" fill="white"/>
</mask>
<g mask="url(#mask0_2_7596)">
<mask id="mask1_2_7596" style="mask-type:luminance" maskUnits="userSpaceOnUse" x="3" y="3" width="660" height="159">
<path d="M662.451 3.2019H3.98685V161.002H662.451V3.2019Z" fill="white"/>
</mask>
<g mask="url(#mask1_2_7596)">
<path d="M57.0478 45.2395C29.4876 45.2395 3.98685 68.0766 3.98685 102.573C3.98685 139.525 30.1887 161.003 59.7205 161.003C85.9224 161.003 103.142 145.53 108.969 126.506L87.0178 119.537C83.4249 130.276 75.3628 138.561 59.7205 138.561C44.0783 138.561 30.6269 126.682 29.9258 110.113H109.627C109.846 109.674 110.284 106.08 110.284 101.828C110.284 67.3315 90.5669 45.1518 57.004 45.1518M30.6269 91.133C31.5032 79.4733 40.9236 66.937 57.2669 66.937C75.1875 66.937 83.6878 78.3336 84.1259 91.133H30.6269Z" fill="#121212"/>
<path d="M210.622 86.003C210.622 64.2617 197.872 45.238 164.265 45.238C137.406 45.238 120.405 62.0262 118.39 80.8307L142.138 86.2222C143.277 75.2639 150.857 66.4972 164.528 66.4972C178.198 66.4972 185.121 73.905 185.121 83.0662C185.121 86.8797 183.325 89.9919 177.059 90.9124L149.061 95.1642C130.483 97.838 116.155 108.621 116.155 128.083C116.155 145.31 130.264 161.002 153.092 161.002C170.794 161.002 181.528 152.06 186.655 143.775C186.655 152.498 187.531 156.969 187.794 157.671H211.98C211.761 156.531 210.622 150.044 210.622 140.181V86.003ZM185.078 112.435C185.078 133.694 172.546 140.663 157.999 140.663C147.703 140.663 142.094 133.957 142.094 126.549C142.094 117.563 148.579 113.092 156.641 111.777L185.078 107.525V112.435Z" fill="#121212"/>
<path d="M250.451 66.0589V48.5694H225.169V157.627H251.152V105.684C251.152 85.3017 260.309 73.6421 280.464 73.6421C283.137 73.6421 286.073 73.8612 288.965 74.2996V47.8681C287.826 47.6489 285.153 47.2106 282.042 47.2106C267.714 47.2106 255.621 54.1362 250.494 66.0151" fill="#121212"/>
<path d="M355.871 45.4557C343.778 45.4557 330.809 50.5842 323.623 63.1644V48.6117H298.341V157.669H324.324V94.7244C324.324 80.3909 332.167 68.9504 346.933 68.9504C363.276 68.9504 369.323 79.6895 369.323 93.1464V157.669H395.305V88.6754C395.305 64.6985 382.555 45.4557 355.915 45.4557" fill="#121212"/>
<path d="M457.743 45.2395C430.183 45.2395 404.682 68.0766 404.682 102.573C404.682 139.525 430.884 161.003 460.416 161.003C486.618 161.003 503.837 145.53 509.665 126.506L487.713 119.537C484.12 130.276 476.058 138.561 460.416 138.561C444.773 138.561 431.322 126.682 430.621 110.113H510.322C510.541 109.674 510.979 106.08 510.979 101.828C510.979 67.3315 491.262 45.1518 457.699 45.1518M431.322 91.133C432.198 79.4733 441.619 66.937 457.962 66.937C475.883 66.937 484.383 78.3336 484.821 91.133H431.322Z" fill="#121212"/>
<path d="M662.451 81.5759V58.5196H639.622V42.3889C639.622 20.7352 622.096 3.2019 600.451 3.2019C578.806 3.2019 561.28 20.7352 561.28 42.3889C561.28 43.3971 561.368 44.3614 561.455 45.3257C560.71 45.3257 559.965 45.2381 559.177 45.2381C536.568 45.2381 519.129 61.3687 519.129 80.3924C519.129 95.3834 529.207 107.92 548.442 112.172L564.566 115.766C573.285 117.563 577.316 122.034 577.316 127.864C577.316 134.57 571.708 140.4 560.973 140.4C547.084 140.4 539.723 131.677 538.802 121.815L516.193 128.083C517.552 140.4 529.645 161.002 561.192 161.002C588.971 161.002 602.379 142.636 602.379 126.067C602.379 109.498 591.644 97.3997 571.051 92.9287L554.488 89.5536C547.785 88.1947 543.534 83.9429 543.534 78.1131C543.534 71.4066 550.019 65.5767 559.221 65.5767C565.267 65.5767 569.605 67.3301 572.672 69.8286C572.803 69.9601 573.066 70.1354 573.066 70.1354L585.861 57.7306C583.451 55.4512 581.567 52.6021 580.471 49.4022C579.726 47.2106 579.288 44.8874 579.288 42.4327C579.288 30.6854 588.796 21.1736 600.539 21.1736C612.281 21.1736 621.789 30.6854 621.789 42.4327C621.789 48.8762 618.898 54.6622 614.385 58.5634C611.011 61.4564 606.673 63.2974 601.941 63.6042V81.5321L613.99 81.5759V126.505C613.99 146.888 626.522 158.986 646.677 158.986C656.053 158.986 661.005 157.188 662.582 156.531V135.009C661.443 135.228 657.193 135.885 653.644 135.885C644.004 135.885 639.754 131.853 639.754 122.209V81.5321H662.582L662.451 81.5759Z" fill="#121212"/>
</g>
</g>
<path d="M4.51315 233.674H10.3845C10.9103 237.268 13.7583 239.021 17.3512 239.021C20.9441 239.021 23.4416 237.487 23.4416 234.901C23.4416 232.578 21.2508 231.394 17.6141 230.649L14.4593 229.948C8.36894 228.633 5.34565 225.828 5.34565 221.269C5.34565 215.746 10.5597 211.932 16.913 211.932C23.2663 211.932 28.2613 215.352 28.8747 221.313H23.0034C22.5653 218.464 20.2868 216.754 16.913 216.754C13.7583 216.754 11.217 218.376 11.217 220.787C11.217 222.847 12.7067 223.767 15.9929 224.469L19.5858 225.214C25.5447 226.441 29.4005 229.159 29.4005 234.288C29.4005 240.643 23.6168 243.799 17.3512 243.799C10.5159 243.799 5.12657 240.512 4.51315 233.674Z" fill="#121212"/>
<path d="M41.3183 217.676H31.5036V212.592H57.1796V217.676H47.3649V243.275H41.3183V217.676Z" fill="#121212"/>
<path d="M61.2545 231.046V212.592H67.301V230.739C67.301 235.736 70.0614 238.541 74.1363 238.541C78.2112 238.541 80.9277 235.78 80.9277 230.783V212.592H86.9743V231.002C86.9743 239.155 81.6288 243.801 74.0925 243.801C66.5562 243.801 61.2545 239.242 61.2545 231.046Z" fill="#121212"/>
<path d="M92.4075 212.592H103.055C112.869 212.592 119.223 217.501 119.223 227.758C119.223 238.015 112.782 243.275 103.011 243.275H92.4075V212.592ZM102.398 238.234C109.539 238.234 113.001 234.245 113.001 227.758C113.001 221.271 109.496 217.633 102.398 217.633H98.4103V238.234H102.398Z" fill="#121212"/>
<path d="M146.476 243.275H124.262V212.592H146.169V217.545H130.177V224.953H144.986V229.862H130.177V238.322H146.476V243.275Z" fill="#121212"/>
<path d="M157.737 220.438V243.275H151.909V212.592H159.314L172.985 235.385V212.592H178.812V243.275H171.407L157.737 220.438Z" fill="#121212"/>
<path d="M193.009 217.676H183.194V212.592H208.87V217.676H199.055V243.275H193.009V217.676Z" fill="#121212"/>
<path d="M224.162 212.592H230.208V238.19H244.404V243.275H224.162V212.592Z" fill="#121212"/>
<path d="M245.5 227.756C245.5 217.85 252.817 211.932 261.098 211.932C269.38 211.932 276.697 217.762 276.697 227.756C276.697 237.75 269.511 243.799 261.098 243.799C252.686 243.799 245.5 237.75 245.5 227.756ZM270.387 227.756C270.387 221.269 266.313 217.192 261.055 217.192C255.797 217.192 251.766 221.269 251.766 227.756C251.766 234.244 255.753 238.583 261.055 238.583C266.356 238.583 270.387 234.331 270.387 227.756Z" fill="#121212"/>
<path d="M299.218 236.13H286.029L283.401 243.275H277.31L289.316 212.592H296.239L308.2 243.275H301.847L299.218 236.13ZM297.378 231.177L292.646 218.378L287.87 231.177H297.378Z" fill="#121212"/>
<path d="M317.621 220.438V243.275H311.793V212.592H319.198L332.869 235.385V212.592H338.696V243.275H331.291L317.621 220.438Z" fill="#121212"/>
<path d="M364.81 231.528V243.275H358.895V212.592H372.653C380.014 212.592 383.301 216.8 383.301 221.972C383.301 226.75 380.496 229.643 377.035 230.695V230.783C377.429 231.44 377.692 231.835 378.174 232.755L384.133 243.275H377.254L371.164 232.229C370.857 231.659 370.769 231.528 369.981 231.528H364.81ZM364.81 226.618H371.952C375.501 226.618 377.254 224.777 377.254 222.103C377.254 219.43 375.457 217.545 371.952 217.545H364.81V226.618Z" fill="#121212"/>
<path d="M411.036 243.275H388.821V212.592H410.729V217.545H394.736V224.953H409.546V229.862H394.736V238.322H411.036V243.275Z" fill="#121212"/>
<path d="M422.472 230.52V243.275H416.469V212.592H437.238V217.676H422.472V225.61H435.88V230.52H422.472Z" fill="#121212"/>
<path d="M442.101 212.592H448.148V243.275H442.101V212.592Z" fill="#121212"/>
<path d="M460.679 220.438V243.275H454.852V212.592H462.257L475.927 235.385V212.592H481.755V243.275H474.35L460.679 220.438Z" fill="#121212"/>
<path d="M507.212 236.13H494.023L491.394 243.275H485.304L497.309 212.592H504.232L516.194 243.275H509.841L507.212 236.13ZM505.371 231.177L500.639 218.378L495.863 231.177H505.371Z" fill="#121212"/>
<path d="M525.614 220.438V243.275H519.787V212.592H527.192L540.862 235.385V212.592H546.69V243.275H539.285L525.614 220.438Z" fill="#121212"/>
<path d="M551.772 227.756C551.772 217.85 559.089 211.932 566.932 211.932C574.249 211.932 579.902 216.228 580.866 222.716H574.863C573.943 219.384 571.007 217.192 566.932 217.192C561.981 217.192 558.081 221.313 558.081 227.756C558.081 234.2 562.025 238.583 566.932 238.583C570.963 238.583 573.811 236.479 574.907 233.016H580.909C579.77 239.635 574.206 243.799 566.932 243.799C558.87 243.799 551.772 237.794 551.772 227.756Z" fill="#121212"/>
<path d="M585.729 212.592H591.776V243.275H585.729V212.592Z" fill="#121212"/>
<path d="M604.307 220.438V243.275H598.48V212.592H605.885L619.555 235.385V212.592H625.383V243.275H617.978L604.307 220.438Z" fill="#121212"/>
<path d="M646.37 226.836H660.128V243.273H654.914V239.416C652.942 241.871 649.437 243.712 645.231 243.712C637.256 243.712 630.421 237.531 630.421 227.756C630.421 217.981 637.563 211.932 646.239 211.932C653.161 211.932 659.077 215.79 660.041 221.927H654.082C653.161 218.99 650.27 217.061 646.239 217.061C640.543 217.061 636.599 221.137 636.599 227.756C636.599 234.375 640.586 238.627 646.063 238.627C650.27 238.627 654.082 235.734 654.52 231.701H646.37V226.88V226.836Z" fill="#121212"/>
</svg>
